#!OML:ASF I:\golf\golf\golf 2\Subject 1\2002-09-07\Subject1.ASF
:FULLY-SPECIFIED
:DEGREES
294
root 2.20965 10.3023 -1.98617 12.8683 -7.08003 -4.29754
lowerback 41.1069 7.94562 4.22906
upperback 17.4051 11.0757 6.6009
thorax -0.685118 5.14246 1.0044
lowerneck -6.73271 -6.77694 0.974659
upperneck 26.8466 -6.05994 -13.1048
head 8.99965 -3.85337 -5.22089
rclavicle 1.49486e-013 -7.15625e-015
rhumerus 20.1645 -0.812328 -74.5166
rradius 35.4426
rwrist -0.92153
rhand -45.9724 29.4956
rfingers 7.12502
rthumb -18.7192 0.37628
lclavicle 1.49486e-013 -7.15625e-015
lhumerus -35.7351 -42.7337 95.8072
lradius 98.2133
lwrist -29.669
lhand -52.8405 31.0247
lfingers 7.12502
lthumb -25.3129 59.3651
rfemur -95.4428 -62.7753 38.0812
rtibia 136.496
rfoot -28.6868 16.7234
rtoes -14.2727
lfemur -97.0754 19.7605 -22.7458
ltibia 127.967
lfoot -30.0078 -14.3749
ltoes -15.3844
295
root 2.21304 10.2979 -1.98401 12.8178 -7.08183 -4.29565
lowerback 41.1741 7.93738 4.24049
upperback 17.3836 11.0741 6.59943
thorax -0.726137 5.14036 0.990943
lowerneck -6.7833 -6.76949 1.00016
upperneck 26.8693 -6.06085 -13.0681
head 9.01735 -3.84996 -5.21661
rclavicle 1.01778e-013 -5.24792e-014
rhumerus 20.101 -0.859348 -74.6008
rradius 35.4732
rwrist -0.866899
rhand -45.88 29.3889
rfingers 7.12502
rthumb -18.6302 0.261021
lclavicle 1.01778e-013 -5.24792e-014
lhumerus -35.6898 -42.7373 95.7805
lradius 98.205
lwrist -29.6781
lhand -52.7831 31.1151
lfingers 7.12502
lthumb -25.2579 59.4632
rfemur -95.4358 -62.9375 38.0372
rtibia 136.532
rfoot -28.7345 16.7628
rtoes -14.2543
lfemur -97.0662 19.7467 -22.7611
ltibia 128.032
lfoot -29.9071 -14.3694
ltoes -14.8442
296
root 2.21567 10.2977 -1.98086 12.7153 -7.12374 -4.32176
lowerback 41.2494 7.95726 4.23305
upperback 17.4038 11.0955 6.61254
thorax -0.729247 5.14812 0.99705
lowerneck -6.90587 -6.75317 1.07186
upperneck 26.8979 -6.04187 -13.0931
head 9.04759 -3.8412 -5.24404
rclavicle -4.45278e-014 -2.22639e-014
rhumerus 19.9822 -0.914059 -74.7287
rradius 35.6522
rwrist -0.862585
rhand -45.9379 29.7889
rfingers 7.12502
rthumb -18.6859 0.6664
lclavicle -4.45278e-014 -2.22639e-014
lhumerus -35.5901 -42.7493 95.7118
lradius 98.2351
lwrist -29.6415
lhand -52.7397 31.0457
lfingers 7.12502
lthumb -25.2164 59.3997
rfemur -95.129 -63.0219 37.823
rtibia 136.518
rfoot -28.8905 16.6686
rtoes -14.6454
lfemur -96.9269 19.7864 -22.706
ltibia 128.079
lfoot -29.8951 -14.3534
ltoes -14.8185
297
root 2.21761 10.292 -1.97833 12.6879 -7.18925 -4.33905
lowerback 41.2037 7.9893 4.19186
upperback 17.4348 11.1141 6.61789
thorax -0.689873 5.15588 1.02198
lowerneck -7.00691 -6.73388 1.14739
upperneck 26.9372 -6.00936 -13.1567
head 9.07688 -3.82889 -5.28411
rclavicle 9.54166e-015 1.59028e-015
rhumerus 19.9896 -0.598764 -74.5369
rradius 35.6408
rwrist -1.23833
rhand -46.0338 29.8352
rfingers 7.12502
rthumb -18.7782 0.721541
lclavicle 9.54166e-015 1.59028e-015
lhumerus -35.5222 -42.7367 95.6418
lradius 98.2682
lwrist -29.6525
lhand -52.5797 30.4549
lfingers 7.12502
lthumb -25.0631 58.8303
rfemur -95.04 -63.0243 37.7363
rtibia 136.545
rfoot -29.0223 16.5379
rtoes -15.2943
lfemur -96.9029 19.8214 -22.6759
ltibia 128.165
lfoot -30.002 -14.2082
ltoes -15.4497
298
root 2.22138 10.2786 -1.97812 12.7644 -7.20049 -4.32561
lowerback 41.0689 7.98354 4.1776
upperback 17.4298 11.098 6.60385
thorax -0.656266 5.1511 1.02923
lowerneck -7.05188 -6.73061 1.15695
upperneck 26.9698 -6.0074 -13.1408
head 9.09727 -3.8273 -5.28451
rclavicle 4.13472e-014 1.66979e-014
rhumerus 20.0613 -0.225864 -74.2504
rradius 35.4988
rwrist -1.74065
rhand -46.043 29.7922
rfingers 7.12502
rthumb -18.787 0.67945
lclavicle 4.13472e-014 1.66979e-014
lhumerus -35.5477 -42.7545 95.6367
lradius 98.3276
lwrist -29.5629
lhand -51.9655 29.2523
lfingers 7.12502
lthumb -24.4744 57.7086
rfemur -95.3608 -63.0067 37.855
rtibia 136.653
rfoot -28.944 16.5709
rtoes -15.4201
lfemur -97.1035 19.7445 -22.7198
ltibia 128.306
lfoot -30.0867 -14.0039
ltoes -16.4298
299
root 2.22806 10.2632 -1.97931 12.8585 -7.16303 -4.27815
lowerback 40.8927 7.92658 4.19726
upperback 17.4205 11.0324 6.57316
thorax -0.605783 5.12673 1.0232
lowerneck -7.10287 -6.72403 1.1568
upperneck 27.0195 -5.99296 -13.1439
head 9.12569 -3.82301 -5.29046
rclavicle 5.08889e-014 -9.54166e-015
rhumerus 20.0399 -0.410586 -74.4405
rradius 35.6006
rwrist -1.60032
rhand -45.8267 29.5982
rfingers 7.12502
rthumb -18.579 0.465428
lclavicle 5.08889e-014 -9.54166e-015
lhumerus -35.5838 -42.7902 95.657
lradius 98.4199
lwrist -29.3433
lhand -51.5763 28.5712
lfingers 7.12502
lthumb -24.1013 57.0774
rfemur -95.8798 -63.0614 38.0606
rtibia 136.776
rfoot -28.7173 16.7895
rtoes -15.1138
lfemur -97.39 19.5358 -22.7966
ltibia 128.444
lfoot -29.9643 -13.976
ltoes -16.4815
300
root 2.23162 10.258 -1.97982 12.7864 -7.19038 -4.25855
lowerback 40.9285 7.90902 4.18388
upperback 17.4245 11.0068 6.56177
thorax -0.611288 5.11366 1.02443
lowerneck -7.14418 -6.6939 1.15081
upperneck 27.089 -5.94311 -13.1465
head 9.16266 -3.80283 -5.29346
rclavicle 6.99722e-014 -2.54444e-014
rhumerus 19.9714 -0.576192 -74.6611
rradius 35.7712
rwrist -1.47842
rhand -45.6376 29.3887
rfingers 7.12502
rthumb -18.3971 0.238616
lclavicle 6.99722e-014 -2.54444e-014
lhumerus -35.6167 -42.7666 95.6765
lradius 98.4995
lwrist -29.3659
lhand -51.7142 28.5166
lfingers 7.12502
lthumb -24.2335 57.0053
rfemur -95.8175 -63.1587 37.9174
rtibia 136.815
rfoot -28.6679 16.9153
rtoes -15.1305
lfemur -97.3468 19.5058 -22.7865
ltibia 128.504
lfoot -29.9394 -13.937
ltoes -16.5204
301
root 2.22943 10.2643 -1.97991 12.5397 -7.28569 -4.29741
lowerback 41.218 7.96373 4.12797
upperback 17.4343 11.06 6.5934
thorax -0.699942 5.12713 1.04447
lowerneck -7.12224 -6.67312 1.0961
upperneck 27.1104 -5.92123 -13.0711
head 9.17385 -3.79037 -5.25684
rclavicle 1.20861e-013 3.18055e-015
rhumerus 19.9149 -0.455711 -74.6245
rradius 35.8635
rwrist -1.77478
rhand -45.5003 29.2979
rfingers 7.12502
rthumb -18.265 0.135445
lclavicle 1.20861e-013 3.18055e-015
lhumerus -35.5944 -42.6985 95.7044
lradius 98.5285
lwrist -29.5051
lhand -51.7455 28.585
lfingers 7.12502
lthumb -24.2635 57.0697
rfemur -95.067 -63.2431 37.3982
rtibia 136.766
rfoot -28.8026 16.8678
rtoes -15.3047
lfemur -96.9601 19.7708 -22.6514
ltibia 128.535
lfoot -30.1573 -13.9248
ltoes -17.0604
302
root 2.2268 10.2672 -1.97996 12.3716 -7.35167 -4.32244
lowerback 41.3905 8.01544 4.04821
upperback 17.4452 11.0985 6.62631
thorax -0.757857 5.13486 1.09057
lowerneck -7.06393 -6.67195 1.1155
upperneck 27.0619 -5.92215 -13.0988
head 9.14331 -3.7901 -5.26367
rclavicle 2.54444e-014 2.22639e-014
rhumerus 19.9015 -0.26812 -74.5479
rradius 35.8743
rwrist -2.10547
rhand -45.4846 29.3429
rfingers 7.12502
rthumb -18.2499 0.178975
lclavicle 2.54444e-014 2.22639e-014
lhumerus -35.5119 -42.6637 95.699
lradius 98.4987
lwrist -29.5364
lhand -51.6497 28.9165
lfingers 7.12502
lthumb -24.1716 57.4134
rfemur -94.5951 -63.2879 37.0894
rtibia 136.735
rfoot -28.9137 16.7385
rtoes -15.6102
lfemur -96.6885 19.9768 -22.5452
ltibia 128.57
lfoot -30.311 -14.0363
ltoes -17.1082
303
root 2.22632 10.2633 -1.97923 12.2974 -7.36814 -4.3925
lowerback 41.43 8.02364 4.05779
upperback 17.4542 11.1135 6.65857
thorax -0.764422 5.13946 1.11174
lowerneck -7.04957 -6.67671 1.14757
upperneck 27.0693 -5.92096 -13.1546
head 9.1393 -3.79176 -5.28806
rclavicle -3.18055e-014 4.77083e-015
rhumerus 19.8857 -0.0278358 -74.4499
rradius 35.8288
rwrist -2.47623
rhand -45.6849 29.6216
rfingers 7.12502
rthumb -18.4426 0.475894
lclavicle -3.18055e-014 4.77083e-015
lhumerus -35.4889 -42.703 95.6992
lradius 98.4892
lwrist -29.3441
lhand -51.6492 29.0768
lfingers 7.12502
lthumb -24.1712 57.5738
rfemur -94.3919 -63.3211 37.0088
rtibia 136.745
rfoot -29.0023 16.6631
rtoes -15.8435
lfemur -96.6128 20.0815 -22.4406
ltibia 128.624
lfoot -30.3756 -14.099
ltoes -17.0748
304
root 2.22705 10.2575 -1.97805 12.2164 -7.3818 -4.44373
lowerback 41.4949 8.02161 4.09779
upperback 17.4583 11.1275 6.67874
thorax -0.775781 5.14564 1.10444
lowerneck -7.0961 -6.68993 1.10136
upperneck 27.1887 -5.9301 -13.1094
head 9.19382 -3.7976 -5.27544
rclavicle 1.90833e-014 2.3059e-014
rhumerus 19.848 0.0685781 -74.4107
rradius 35.8214
rwrist -2.6485
rhand -45.8135 29.7792
rfingers 7.12502
rthumb -18.5663 0.645178
lclavicle 1.90833e-014 2.3059e-014
lhumerus -35.4956 -42.7804 95.7239
lradius 98.5403
lwrist -29.0099
lhand -51.788 28.8248
lfingers 7.12502
lthumb -24.3043 57.3041
rfemur -94.1751 -63.3869 36.8645
rtibia 136.774
rfoot -29.0559 16.691
rtoes -15.8104
lfemur -96.5587 20.154 -22.353
ltibia 128.716
lfoot -30.4627 -14.1176
ltoes -17.1184
305
root 2.23057 10.2454 -1.97865 12.2678 -7.36912 -4.41956
lowerback 41.3801 7.99439 4.10107
upperback 17.4556 11.0928 6.65935
thorax -0.741315 5.13321 1.10317
lowerneck -7.09515 -6.69567 1.04787
upperneck 27.2513 -5.94627 -13.0121
head 9.22117 -3.80091 -5.23786
rclavicle 1.27222e-014 1.27222e-014
rhumerus 19.8232 0.0584607 -74.4607
rradius 35.8477
rwrist -2.53077
rhand -45.8482 29.6643
rfingers 7.12502
rthumb -18.5997 0.533538
lclavicle 1.27222e-014 1.27222e-014
lhumerus -35.5055 -42.8302 95.7247
lradius 98.6263
lwrist -28.9416
lhand -51.9993 28.6316
lfingers 7.12502
lthumb -24.5069 57.0836
rfemur -94.4975 -63.4175 37.014
rtibia 136.87
rfoot -29.0112 16.7265
rtoes -15.7333
lfemur -96.6838 20.0354 -22.3746
ltibia 128.817
lfoot -30.423 -14.0981
ltoes -16.9461
306
root 2.23691 10.2297 -1.98108 12.4083 -7.32235 -4.39744
lowerback 41.1086 7.93897 4.13252
upperback 17.4711 11.0288 6.63714
thorax -0.636126 5.11262 1.1092
lowerneck -7.05617 -6.69096 1.01974
upperneck 27.2043 -5.95743 -12.9402
head 9.20053 -3.80072 -5.20402
rclavicle 2.22639e-014 3.57812e-014
rhumerus 19.8304 0.148932 -74.4284
rradius 35.8244
rwrist -2.55198
rhand -45.9023 29.5865
rfingers 7.12502
rthumb -18.6517 0.460661
lclavicle 2.22639e-014 3.57812e-014
lhumerus -35.508 -42.8318 95.7051
lradius 98.7748
lwrist -29.1009
lhand -51.993 28.635
lfingers 7.12502
lthumb -24.5008 57.0878
rfemur -95.163 -63.4301 37.4144
rtibia 137.005
rfoot -28.9199 16.7447
rtoes -15.8281
lfemur -96.9511 19.7919 -22.4262
ltibia 128.912
lfoot -30.2596 -14.0021
ltoes -16.6373
